<svg xmlns="http://www.w3.org/2000/svg" viewBox="0 0 180 180" role="img" aria-labelledby="title desc">
  <title id="title">Yunjia Digital logo</title>
  <desc id="desc">Yunjia Digital cloud loop mark</desc>
  <g fill="none" stroke="#101750" stroke-width="8" stroke-linecap="round" stroke-linejoin="round">
    <path d="M57 128c-19.3 0-35-15.7-35-35 0-18.2 13.9-33.1 31.6-34.8C58.3 39.9 74.3 28 93 28c22.6 0 41.3 17.4 43.6 39.4 14.4 1.2 25.7 13.3 25.7 28 0 15.5-12.5 28-28 28H57"/>
    <path d="M41 123l37-40"/>
    <path d="M77 84l31 33"/>
    <path d="M106 116l33-56"/>
    <path d="M72 84c4.5 0 8.1 3.6 8.1 8.1 0 4.5-3.6 8.1-8.1 8.1-4.5 0-8.1-3.6-8.1-8.1 0-4.5 3.6-8.1 8.1-8.1Z"/>
  </g>
</svg>
